<svg xmlns="http://www.w3.org/2000/svg" id="Layer_1" data-name="Layer 1" viewBox="0 0 731.46 160"><defs><style>.cls-1{font-size:77.86px;font-family:Arial-Black, Arial;font-weight:800;letter-spacing:-0.02em;}.cls-1,.cls-32{fill:#ef4d5b;}.cls-2{letter-spacing:-0.01em;}.cls-3{letter-spacing:-0.01em;}.cls-4{letter-spacing:-0.01em;}.cls-5{letter-spacing:-0.02em;}.cls-6{letter-spacing:-0.01em;}.cls-7{letter-spacing:-0.02em;}.cls-8{letter-spacing:-0.01em;}.cls-9{letter-spacing:-0.01em;}.cls-10{letter-spacing:0em;}.cls-11{letter-spacing:-0.01em;}.cls-12{letter-spacing:0em;}.cls-13{font-size:41.39px;fill:#100356;font-family:CenturyGothic, Century Gothic;}.cls-14{letter-spacing:-0.02em;}.cls-15{letter-spacing:-0.01em;}.cls-16{letter-spacing:0em;}.cls-17{letter-spacing:-0.03em;}.cls-18{letter-spacing:0em;}.cls-19{letter-spacing:-0.03em;}.cls-20{letter-spacing:-0.01em;}.cls-21{letter-spacing:-0.01em;}.cls-22{letter-spacing:-0.01em;}.cls-23{letter-spacing:-0.01em;}.cls-24{letter-spacing:-0.04em;}.cls-25{letter-spacing:0em;}.cls-26{letter-spacing:0em;}.cls-27{letter-spacing:-0.01em;}.cls-28{letter-spacing:-0.01em;}.cls-29{letter-spacing:0em;}.cls-30{letter-spacing:-0.02em;}.cls-31{letter-spacing:0.02em;}.cls-33{fill:#fff;}.cls-34{fill:#0178b2;}</style></defs><text class="cls-1" transform="translate(172.2 86.46)">I<tspan class="cls-2" x="28.85" y="0">n</tspan><tspan class="cls-3" x="80.04" y="0">d</tspan><tspan class="cls-4" x="130.96" y="0">e</tspan><tspan class="cls-5" x="182.23" y="0">n</tspan><tspan class="cls-6" x="232.59" y="0">t</tspan><tspan class="cls-7" x="266.58" y="0">i</tspan><tspan class="cls-8" x="291.23" y="0">o</tspan><tspan class="cls-9" x="342.19" y="0">n</tspan><tspan class="cls-10" x="393.23" y="0">s</tspan><tspan class="cls-11" x="440.69" y="0">.</tspan><tspan class="cls-7" x="465.82" y="0">i</tspan><tspan class="cls-12" x="490.47" y="0">o</tspan></text><text class="cls-13" transform="translate(177.82 127.64)"><tspan class="cls-14">W</tspan><tspan class="cls-15" x="38.96" y="0">h</tspan><tspan class="cls-16" x="63.92" y="0">e</tspan><tspan class="cls-17" x="90.95" y="0">r</tspan><tspan class="cls-18" x="102.26" y="0">e </tspan><tspan class="cls-19" x="140.62" y="0">c</tspan><tspan class="cls-20" x="166.13" y="0">o</tspan><tspan class="cls-21" x="192.75" y="0">d</tspan><tspan x="220.8" y="0">e </tspan><tspan class="cls-22" x="259.16" y="0">m</tspan><tspan class="cls-23" x="297.77" y="0">e</tspan><tspan class="cls-24" x="324.22" y="0">e</tspan><tspan class="cls-25" x="349.54" y="0">t</tspan><tspan class="cls-26" x="363.45" y="0">s </tspan><tspan class="cls-27" x="390.98" y="0">b</tspan><tspan class="cls-28" x="418.83" y="0">e</tspan><tspan class="cls-29" x="445.24" y="0">a</tspan><tspan class="cls-30" x="473.38" y="0">u</tspan><tspan class="cls-31" x="497.75" y="0">t</tspan><tspan x="512.54" y="0">y</tspan></text><circle class="cls-32" cx="86.71" cy="78.58" r="35.64"/><rect class="cls-33" x="63.57" y="56.83" width="32.33" height="10.34" rx="2.49"/><rect class="cls-33" x="69.41" y="73.1" width="32.33" height="10.34" rx="2.49"/><rect class="cls-33" x="77.47" y="89.36" width="32.33" height="10.34" rx="2.49"/><path class="cls-34" d="M16.85,78.6c4.48-4.48,8.8-8.83,13.17-13.14a2.94,2.94,0,0,0,1-2.33c0-6.44,0-12.89,0-19.34a23.53,23.53,0,0,1,24-24H68.69v9.74H55.34c-8.64,0-14.6,5.92-14.63,14.55q0,11.61,0,23.21a3,3,0,0,1-1,2.33c-2.67,2.6-5.28,5.27-7.94,7.89a7,7,0,0,1-1.33.81c.63.71.9,1,1.2,1.35,2.67,2.68,5.32,5.37,8,8a3.11,3.11,0,0,1,1,2.44q-.06,11.54,0,23.08c0,6.5,3.42,11.65,9.16,13.63a17.52,17.52,0,0,0,5.09.86c4,.13,8,0,12,0h1.7v9.6c-.48,0-1,.07-1.43.07H54.3A23.42,23.42,0,0,1,31,114.14q0-10,0-20a3,3,0,0,0-1-2.32c-4-4-8-8-12-12C17.64,79.48,17.3,79.08,16.85,78.6Z"/><path class="cls-34" d="M104.84,137.38v-9.67c.55,0,1.06,0,1.58,0,4.66,0,9.35.15,14-.19A13.51,13.51,0,0,0,132.69,114c0-8.05,0-16.09.05-24.14a3.28,3.28,0,0,1,.85-2.06c2.65-2.76,5.39-5.44,8.09-8.14.34-.34.66-.7,1.1-1.16-2.87-2.85-5.63-5.68-8.5-8.39a4.67,4.67,0,0,1-1.62-3.81c.08-7.47,0-14.94,0-22.41,0-8.42-5.89-14.35-14.33-14.41-4,0-8,0-12,0h-1.51V20c.15-.09.23-.17.3-.17,6.08.13,12.25-.33,18.22.52,11,1.57,19.06,11.61,19.06,22.73,0,6.67,0,13.34,0,20a2.86,2.86,0,0,0,.91,2.22c4.31,4.25,8.57,8.53,12.85,12.81a6.12,6.12,0,0,1,.4.5c-.33.35-.65.7-1,1-4.12,4.12-8.26,8.22-12.33,12.38a3.15,3.15,0,0,0-.8,2c-.05,6.71,0,13.43,0,20.14a23.37,23.37,0,0,1-23.28,23.25H104.84Z"/></svg>